<svg width="24" height="24" viewBox="0 0 24 24" fill="none" xmlns="http://www.w3.org/2000/svg">
<path d="M3 20C2.44996 20 1.9792 19.8042 1.5875 19.4125C1.1958 19.0208 1 18.55 1 18V6C1 5.45 1.1958 4.97917 1.5875 4.5875C1.9792 4.19583 2.44996 4 3 4H21.175C21.7251 4 22.1959 4.19583 22.5875 4.5875C22.9792 4.97917 23.175 5.45 23.175 6V18C23.175 18.55 22.9792 19.0208 22.5875 19.4125C22.1959 19.8042 21.7251 20 21.175 20L3 20ZM3 18L21.175 18V6H3V18ZM10.5 15H13.5C13.7834 15 14.0208 14.9042 14.2125 14.7125C14.4042 14.5208 14.5 14.2833 14.5 14V13H13V13.5H11V10.5H13V11H14.5V10C14.5 9.71667 14.4042 9.47917 14.2125 9.2875C14.0208 9.09583 13.7834 9 13.5 9H10.5C10.2167 9 9.97919 9.09583 9.78751 9.2875C9.59583 9.47917 9.50001 9.71667 9.50001 10V14C9.50001 14.2833 9.59583 14.5208 9.78751 14.7125C9.97919 14.9042 10.2167 15 10.5 15Z" fill="#0f62fe"/>
<path fill-rule="evenodd" clip-rule="evenodd" d="M4.67505 15H7.67505C7.95841 15 8.19587 14.9042 8.38755 14.7125C8.57923 14.5208 8.67505 14.2833 8.67505 14V13V11V10C8.67505 9.71667 8.57923 9.47917 8.38755 9.2875C8.19587 9.09583 7.95841 9 7.67505 9H4.67505C4.39169 9 4.15423 9.09583 3.96255 9.2875C3.77087 9.47917 3.67505 9.71667 3.67505 10V14C3.67505 14.2833 3.77087 14.5208 3.96255 14.7125C4.15423 14.9042 4.39169 15 4.67505 15ZM7.17505 13.5V13V11V10.5H5.17505V13.5H7.17505Z" fill="#0f62fe"/>
<path d="M16.6751 10.5H18.6751L18.675 11.5H20.1751L20.1751 10C20.1751 9.71667 20.0792 9.47917 19.8876 9.2875C19.6959 9.09583 19.4584 9 19.1751 9H16.175C15.8917 9 15.6542 9.09583 15.4625 9.2875C15.2709 9.47917 15.175 9.71667 15.175 10V15L16.675 15L16.675 12.8221L16.675 11.5L16.6751 10.5Z" fill="#0f62fe"/>
<path d="M20.1751 11.5H18.675H16.675L16.675 12.8221H18.3103H18.9625C19.516 12.8221 20.1751 12.5 20.175 12L20.1751 11.5Z" fill="#0f62fe"/>
<path d="M16.675 12.8221L18.175 15L19.8876 15L18.3103 12.8221H16.675Z" fill="#0f62fe"/>
</svg>
